<svg height="550" viewBox="0 0 272 550" width="272" xmlns="http://www.w3.org/2000/svg"><path d="m239.5 479.238095c-33.230625 0-59.875-26.957143-59.875-59.904762 0-33.247143 26.644375-59.904762 59.875-59.904762 33.068049 0 59.875 26.820276 59.875 59.904762 0 33.084487-26.806951 59.904762-59.875 59.904762m179.625 89.857143v-299.523809h-359.25v299.523809zm0-359.428571c33.068049 0 59.875 26.820275 59.875 59.904762v299.523809c0 33.084487-26.806951 59.904762-59.875 59.904762h-359.25c-33.230625 0-59.875-26.957143-59.875-59.904762v-299.523809c0-33.247143 26.644375-59.904762 59.875-59.904762h29.9375v-59.904762c0-82.7112163 67.017377-149.761905 149.6875-149.761905 39.699593 0 77.773195 15.7784411 105.845046 43.8642463 28.071852 28.0858053 43.842454 66.1783317 43.842454 105.8976587v59.904762zm-179.625-149.7619051c-49.602074 0-89.8125 40.2304131-89.8125 89.8571431v59.904762h179.625v-59.904762c0-49.62673-40.210426-89.8571431-89.8125-89.8571431z" fill="#39393a" opacity=".1" transform="translate(-207)"/></svg>