<svg xmlns="http://www.w3.org/2000/svg" viewBox="0 0 149.96 37.5"><defs><style>.a{fill:#ea1b0a;}</style></defs><path class="a" d="M18.75,0A65.7,65.7,0,0,1,31.06,1.17a6.63,6.63,0,0,1,5.27,5.27,65.34,65.34,0,0,1,0,24.62,6.63,6.63,0,0,1-5.27,5.27A65.78,65.78,0,0,1,18.75,37.5,65.78,65.78,0,0,1,6.44,36.33a6.63,6.63,0,0,1-5.27-5.27,65.34,65.34,0,0,1,0-24.62A6.63,6.63,0,0,1,6.44,1.17,65.7,65.7,0,0,1,18.75,0Zm0,1.5a64.47,64.47,0,0,0-12,1.14A5.14,5.14,0,0,0,2.64,6.72a64,64,0,0,0,0,24.06,5.14,5.14,0,0,0,4.08,4.08,64.47,64.47,0,0,0,12,1.14,64.47,64.47,0,0,0,12-1.14,5.14,5.14,0,0,0,4.08-4.08,64,64,0,0,0,0-24.06,5.14,5.14,0,0,0-4.08-4.08A64.47,64.47,0,0,0,18.75,1.5Zm2.62,6.2a2.56,2.56,0,0,1,2.47,1.88l0,.17L25,16.06a2.58,2.58,0,0,1-.56,2.1,2.5,2.5,0,0,1-1.71.9l-.19,0h-3v1.13h3.25a2.58,2.58,0,0,1,2.53,2.13l0,.16v.27A1.67,1.67,0,0,1,24,24.43H19.61v2h3.25a1.67,1.67,0,0,1,1.63,1.28l0,.15,0,.14v1a.78.78,0,0,1-.77.77.76.76,0,0,1-.76-.64l0-.1v-.93a.13.13,0,0,0-.06-.11h-8.1a.12.12,0,0,0-.11.07v1a.78.78,0,0,1-.77.77.76.76,0,0,1-.76-.64l0-.1v-.93a1.67,1.67,0,0,1,1.48-1.65h3.44v-2H13.93a1.68,1.68,0,0,1-1.63-1.29l0-.14,0-.15v-.09a2.57,2.57,0,0,1,2.34-2.55h3.47V19.08h-2.9a2.55,2.55,0,0,1-1.59-.56l-.15-.13-.14-.14-.08-.09a2.58,2.58,0,0,1-.59-1.84l0-.2L13.79,9.8a2.56,2.56,0,0,1,2.3-2.09h5.28Zm98.35,9.16a4,4,0,0,1,1.9.44,2.73,2.73,0,0,1,1.14,1.12l.1.19-1.44,1a2.32,2.32,0,0,0-.62-.69,1.53,1.53,0,0,0-.91-.25,1.41,1.41,0,0,0-1.3.63,3.12,3.12,0,0,0-.38,1.61,3.16,3.16,0,0,0,.38,1.62,1.4,1.4,0,0,0,1.3.65,1.52,1.52,0,0,0,.92-.27,2.34,2.34,0,0,0,.51-.53l.1-.16,1.44,1a2.84,2.84,0,0,1-1.24,1.32,4.46,4.46,0,0,1-3.57.11,3.1,3.1,0,0,1-1.12-.9,3.55,3.55,0,0,1-.63-1.31,5.73,5.73,0,0,1-.2-1.57,5.65,5.65,0,0,1,.2-1.56,3.66,3.66,0,0,1,.63-1.3,3,3,0,0,1,1.12-.89A3.86,3.86,0,0,1,119.72,16.86Zm-8.08,0a3.76,3.76,0,0,1,1.53.29,2.87,2.87,0,0,1,1,.77,3,3,0,0,1,.58,1.09,4.39,4.39,0,0,1,.18,1.25q0,.31,0,.72a4.79,4.79,0,0,1-.08.5l0,.13H110.1a1.78,1.78,0,0,0,.47,1.22,1.71,1.71,0,0,0,1.29.45,2.87,2.87,0,0,0,1-.18,3,3,0,0,0,.76-.41l.18-.13,1,1.35a4.1,4.1,0,0,1-1.2.79,4,4,0,0,1-1.7.34,4.4,4.4,0,0,1-1.74-.31,3.08,3.08,0,0,1-1.2-.85,3.34,3.34,0,0,1-.69-1.29,5.72,5.72,0,0,1-.23-1.65,5.42,5.42,0,0,1,.23-1.57,4,4,0,0,1,.69-1.3,3.17,3.17,0,0,1,1.13-.88,3.58,3.58,0,0,1,1.59-.33ZM94.16,13.09a4.52,4.52,0,0,1,2.45.61A4.3,4.3,0,0,1,98,15.06l.14.24-1.72,1.08a3,3,0,0,0-.85-1A2.18,2.18,0,0,0,94.25,15a2.35,2.35,0,0,0-2.14,1.07,5.58,5.58,0,0,0-.68,3,5.53,5.53,0,0,0,.68,3,2.34,2.34,0,0,0,2.14,1.06,2.12,2.12,0,0,0,1.32-.41,3.2,3.2,0,0,0,.74-.78l.11-.18,1.72,1.08a4.38,4.38,0,0,1-1.53,1.61,4.61,4.61,0,0,1-2.45.61,5.6,5.6,0,0,1-2.22-.41,4,4,0,0,1-1.58-1.17,5.19,5.19,0,0,1-.94-1.88,9.21,9.21,0,0,1-.32-2.51,6.85,6.85,0,0,1,1.26-4.39A4.55,4.55,0,0,1,94.16,13.09ZM81.57,16.74a3.68,3.68,0,0,1,1.52.29,2.84,2.84,0,0,1,1,.78,3.14,3.14,0,0,1,.58,1.08,4.45,4.45,0,0,1,.18,1.25c0,.22,0,.46,0,.72a3.79,3.79,0,0,1-.1.63H80a1.78,1.78,0,0,0,.47,1.22,1.75,1.75,0,0,0,1.3.45,2.91,2.91,0,0,0,1-.18,3.31,3.31,0,0,0,.94-.54l1,1.35a4.15,4.15,0,0,1-2.9,1.13,4.52,4.52,0,0,1-1.74-.3,3.22,3.22,0,0,1-1.2-.85,3.4,3.4,0,0,1-.7-1.3,5.73,5.73,0,0,1-.22-1.65,5.35,5.35,0,0,1,.23-1.56A3.81,3.81,0,0,1,78.85,18,3.29,3.29,0,0,1,80,17.07a3.58,3.58,0,0,1,1.59-.33Zm-7.71,0a4,4,0,0,1,1.91.44A2.75,2.75,0,0,1,77,18.49l-1.44,1a2.43,2.43,0,0,0-.62-.69,1.52,1.52,0,0,0-.9-.25,1.41,1.41,0,0,0-1.3.63,3,3,0,0,0-.39,1.61,3.1,3.1,0,0,0,.39,1.63,1.41,1.41,0,0,0,1.3.64,1.49,1.49,0,0,0,.91-.27,2,2,0,0,0,.61-.69l1.44,1a2.73,2.73,0,0,1-1.23,1.32,4,4,0,0,1-1.91.43,3.81,3.81,0,0,1-1.66-.32,3.1,3.1,0,0,1-1.12-.89,3.69,3.69,0,0,1-.64-1.32,6.22,6.22,0,0,1,0-3.13,3.68,3.68,0,0,1,.64-1.3,3,3,0,0,1,1.12-.89A3.81,3.81,0,0,1,73.86,16.74ZM48.91,13a5.33,5.33,0,0,1,2.3.45,4.2,4.2,0,0,1,1.53,1.26,5.12,5.12,0,0,1,.85,1.91A10.41,10.41,0,0,1,53.85,19a9.26,9.26,0,0,1-.28,2.36,5.29,5.29,0,0,1-.86,1.89,4.11,4.11,0,0,1-1.54,1.25,5.12,5.12,0,0,1-2.28.46,5.18,5.18,0,0,1-2.3-.46,4,4,0,0,1-1.53-1.25,5.27,5.27,0,0,1-.84-1.89A9.74,9.74,0,0,1,44,19a10.43,10.43,0,0,1,.26-2.37,5.07,5.07,0,0,1,.85-1.9,4.12,4.12,0,0,1,1.53-1.26A5.36,5.36,0,0,1,48.91,13Zm52.63,0v4.75a3.48,3.48,0,0,1,.87-.62,3.24,3.24,0,0,1,1.48-.29,2.45,2.45,0,0,1,2,.79,3.34,3.34,0,0,1,.67,2.07v5.13h-2.07V20.21a1.65,1.65,0,0,0-.32-1.09,1.42,1.42,0,0,0-1.11-.36,2.18,2.18,0,0,0-.86.18,2.86,2.86,0,0,0-.56.32l-.1.09v5.5H99.46V13Zm45.74,3.84a2.47,2.47,0,0,1,2,.79,3.28,3.28,0,0,1,.66,2.07v5.13h-2.09V20.21a1.71,1.71,0,0,0-.31-1.09,1.4,1.4,0,0,0-1.1-.36,2.19,2.19,0,0,0-.87.18,2.75,2.75,0,0,0-.55.32l-.11.09v5.5h-2.07V17h2v.89a2.61,2.61,0,0,1,.9-.75A3.18,3.18,0,0,1,147.28,16.86ZM141,17v7.82h-2.08V17ZM126.2,13V20L129.1,17h2.54l-3,2.92,2.88,4.9h-2.32l-2-3.46-1,1v2.47h-2.07V13ZM60,12.9v1.77h-1a.75.75,0,0,0-.7.29,1.41,1.41,0,0,0-.19.8v1.15h3.19V15.75a3,3,0,0,1,.69-2.12,2.87,2.87,0,0,1,2.16-.73h1.1v1.77h-1a.77.77,0,0,0-.71.29,1.51,1.51,0,0,0-.18.8v1.15h2v1.77h-2v6.06H61.36V18.68H58.17v6.06H56.09V18.68H54.86V17.09l1.23-.18V15.75a3,3,0,0,1,.7-2.12,2.83,2.83,0,0,1,2.15-.73Zm8.68,4v7.83H66.64V16.91Zm-19.81-2a2.4,2.4,0,0,0-1.26.3,2.23,2.23,0,0,0-.81.83,4.16,4.16,0,0,0-.43,1.29A10.39,10.39,0,0,0,46.28,19a11.65,11.65,0,0,0,.11,1.64,3.78,3.78,0,0,0,.41,1.28,2,2,0,0,0,.79.82,2.53,2.53,0,0,0,1.3.3,2.5,2.5,0,0,0,1.28-.3,2,2,0,0,0,.8-.82,3.78,3.78,0,0,0,.42-1.28A10.26,10.26,0,0,0,51.51,19a10.44,10.44,0,0,0-.12-1.64A3.92,3.92,0,0,0,51,16a2.25,2.25,0,0,0-.79-.83,2.46,2.46,0,0,0-1.27-.3Zm-26,6.87h-8a1,1,0,0,0-1,1,.11.11,0,0,0,.06.11h9.89a.12.12,0,0,0,.12-.12A1,1,0,0,0,22.86,21.76Zm114.22-2.43V21.1h-4.94V19.33Zm-25.44-.81a1.31,1.31,0,0,0-1.13.48,1.91,1.91,0,0,0-.38.95l0,.19H113a1.1,1.1,0,0,0,0-.16.41.41,0,0,0,0-.1,1.22,1.22,0,0,0-.42-1A1.52,1.52,0,0,0,111.64,18.52Zm-30.07-.11a1.33,1.33,0,0,0-1.14.47A2,2,0,0,0,80,20h2.88l0-.16s0-.08,0-.1a1.23,1.23,0,0,0-.43-1,1.5,1.5,0,0,0-1-.32ZM21.37,9.25H16.31a1,1,0,0,0-1,.68l0,.11-1.14,6.3a1,1,0,0,0,.22.83,1,1,0,0,0,.61.35h7.5a1,1,0,0,0,.78-.36,1,1,0,0,0,.23-.67v-.17l-1.14-6.25A1,1,0,0,0,21.37,9.25Zm118.55,3.87a1.39,1.39,0,0,1,.86.29,1.14,1.14,0,0,1,.38.95,1.06,1.06,0,0,1-.38.92,1.39,1.39,0,0,1-.86.28,1.4,1.4,0,0,1-.9-.28,1.08,1.08,0,0,1-.36-.92,1.16,1.16,0,0,1,.36-.95A1.41,1.41,0,0,1,139.92,13.12ZM67.65,13a1.37,1.37,0,0,1,.86.29,1.14,1.14,0,0,1,.38,1,1.06,1.06,0,0,1-.38.92,1.37,1.37,0,0,1-.86.28,1.4,1.4,0,0,1-.9-.28,1.08,1.08,0,0,1-.36-.92,1.16,1.16,0,0,1,.36-1A1.41,1.41,0,0,1,67.65,13Z" transform="translate(0)"/></svg>