<svg height="87" viewBox="0 0 277 87" width="277" xmlns="http://www.w3.org/2000/svg"><path d="m51.2554895.13451233c2.8027475 0 4.2831388 3.25019952 2.5727434 5.36194856l-.1955514.22170259-15.8618233 16.54953532-4.754384-4.5688985 10.5089635-10.9678087h-36.74182439v73.5546066h88.80024719v-73.5546066l-20.6866147.00192453v-6.5984038h23.9829681c1.7126481 0 3.1200981 1.30843727 3.2797541 2.98146674l.015083.31773516v80.15170387c0 1.7149167-1.306706 3.1242314-2.9775223 3.2840991l-.3173148.0151028h-95.39136884c-1.71264769 0-3.1200978-1.3084372-3.27975405-2.9814667l-.01508284-.3177352v-80.15170387c0-1.71491661 1.30670614-3.12423132 2.97752211-3.28409908l.31731478-.01510282zm79.6386135 56.26042827c1.412209 0 2.852661.1490418 4.321359.4471252 1.468697.2980835 2.612586.6884309 3.431667 1.1710422.734348.4258335 1.101523.8800559 1.101523 1.3626672 0 .3974446-.155343.9155421-.466029 1.5542923-.310686.6387503-.684922 1.2065283-1.122706 1.7033341-.437785.4968057-.826142.7452086-1.165072.7452086-.084733 0-.423663-.12775-1.016791-.3832501-.593127-.2555002-1.313354-.4826114-2.160679-.6813337s-1.864116-.2980834-3.050371-.2980834c-2.485487 0-4.32842.7948892-5.528797 2.3846676-1.200378 1.5897785-1.800566 3.9886406-1.800566 7.1965864 0 6.4726694 2.414877 9.709004 7.24463 9.709004 1.270988 0 2.372511-.12775 3.304569-.3832501s1.835871-.5819725 2.711441-.9794171c.451906-.2271112.762592-.3406668.932057-.3406668.423663 0 .826143.2413057 1.207439.723917s.691982 1.0290976.932058 1.639459c.240075.6103614.360113 1.0574865.360113 1.3413755 0 .7381115-.494273 1.3910562-1.482819 1.9588342-.932058.5393891-2.16068.943931-3.685865 1.2136255-1.525185.2696946-2.951516.4045418-4.278993.4045418-4.745021 0-8.25436-1.2420144-10.528016-3.7260432s-3.410484-6.3520165-3.410484-11.6039632c0-10.1064486 4.716777-15.159673 14.150332-15.159673zm46.179226 7.5372532c3.135103 0 5.444064 1.0220004 6.926883 3.0660013 1.48282 2.0440008 2.224229 4.6841686 2.224229 7.9205033 0 .3406668-.289503.8445698-.868508 1.5117089-.579006.6671392-1.009729 1.0007088-1.292171 1.0007088h-10.803397l.030451.2979171c.172113 1.4621393.642113 2.5125841 1.410002 3.1513343.819081.6813337 1.96297 1.0220005 3.431667 1.0220005.790837 0 1.511063-.092264 2.160679-.2767918.649616-.1845279 1.327477-.4187363 2.033581-.7026253.451907-.2271112.762593-.3406668.932058-.3406668.282442 0 .600189.2058195.953241.6174586.353052.411639.649616.8800559.889691 1.4052506.240076.5251946.360113.9297365.360113 1.2136255 0 .6529447-.437784 1.2136255-1.313354 1.6820423-.875569.4684169-1.920604.8161809-3.135103 1.0432921-1.2145.2271112-2.273656.3406668-3.17747.3406668-3.728231 0-6.503221-1.0007087-8.32497-3.0021262-1.82175-2.0014175-2.732624-4.7764326-2.732624-8.3250452 0-4.002835.910874-6.9410862 2.732624-8.8147536 1.821749-1.8736675 4.342542-2.8105012 7.562378-2.8105012zm23.428543 0c1.722894 0 3.325751.2625973 4.80857.787792 1.482819.5251946 2.224229 1.2420144 2.224229 2.1504592 0 .4258335-.289503 1.0787782-.868508 1.9588342-.579006.8800559-1.037974 1.3200838-1.376904 1.3200838-.112977 0-.367174-.0993611-.762593-.2980834-.564883-.283889-1.122706-.5110002-1.673467-.6813336s-1.22156-.2555001-2.012397-.2555001c-1.666407 0-2.880906.5251946-3.643499 1.575584-.762593 1.0503893-1.143889 2.6827511-1.143889 4.8970853 0 2.2143343.360113 3.8537933 1.08034 4.9183771.720226 1.0645838 1.871176 1.5968757 3.45285 1.5968757.734349 0 1.391026-.0780695 1.970031-.2342085.579006-.1561389 1.059157-.3051807 1.440453-.4471252.381297-.1419445.628433-.2413056.74141-.2980834.451907-.1703334.706104-.2555001.762592-.2555001.282442 0 .600189.2058195.953241.6174586.353053.411639.649616.8800559.889692 1.4052506.240075.5251946.360113.9297365.360113 1.2136255 0 .7097225-.47309 1.2916949-1.41927 1.7459174-.94618.4542224-2.012397.7735975-3.198652.9581254-1.186256.1845278-2.118314.2767917-2.796174.2767917-3.615254 0-6.298451-.9297365-8.04959-2.7892095-1.751138-1.859473-2.626708-4.7054603-2.626708-8.5379619 0-3.8608905.882631-6.7636556 2.647892-8.7082953 1.76526-1.9446397 4.512006-2.9169595 8.240238-2.9169595zm-52.915462-9.4960873.225837.0028154c1.544092.039416 2.316139.4926999 2.316139 1.3598518v11.029088l.241383-.2781061c.659728-.7261951 1.447775-1.3290212 2.364142-1.8084781 1.030912-.5393892 2.153618-.8090837 3.368118-.8090837 2.146557 0 3.749414.5606808 4.808571 1.6820423 1.059156 1.1213616 1.588734 2.8601818 1.588734 5.2164606v14.435756l-.005252.1210634c-.073528.8277359-.919102 1.2416038-2.536723 1.2416038h-1.186256l-.225836-.0028154c-1.544093-.039416-2.316139-.4926999-2.316139-1.3598518v-13.4989223l-.004011-.1991843c-.066851-1.6273223-.969327-2.4409835-2.70743-2.4409835-.762593 0-1.433392.2484029-2.012398.7452087-.579005.4968057-1.037973 1.071681-1.376903 1.7246257v13.6692557l-.005252.1210634c-.073528.8277359-.919103 1.2416038-2.536724 1.2416038h-1.186255l-.225837-.0028154c-1.544093-.039416-2.316139-.4926999-2.316139-1.3598518v-29.467679l.005252-.1210634c.073528-.8277359.919103-1.2416038 2.536724-1.2416038zm67.319991 0 .225836.0028154c1.544093.039416 2.316139.4926999 2.316139 1.3598518v16.8630071l.169465.0425833 5.126318-7.7075865.102025-.1386127c.214425-.2624506.491103-.4362543.830033-.5214293.395418-.0993611.94618-.1490417 1.652284-.1490417h1.567552l.243166.0017694c1.419563.0212327 2.129345.2335596 2.129345.6369809 0 .2271112-.127099.5110002-.381297.851667l-5.88891 8.4315035 6.9057 10.9865046.089921.1433929c.166006.2815716.24901.5318574.24901.7508575 0 .4258335-.804959.6387502-2.414877.6387502h-1.779383l-.253205-.0031604c-1.234579-.0316049-1.997503-.3002459-2.288771-.8059232l-5.888911-9.7941708-.169465.0425834v9.1980038l-.005252.1210634c-.073528.8277359-.919102 1.2416038-2.536723 1.2416038h-1.186256l-.225836-.0028154c-1.544093-.039416-2.316139-.4926999-2.316139-1.3598518v-29.467679l.005252-.1210634c.073528-.8277359.919102-1.2416038 2.536723-1.2416038zm35.333462 9.7515874.225837.0028154c1.544093.039416 2.316139.4926999 2.316139 1.3598518v19.7160916l-.005252.1210634c-.073528.8277359-.919103 1.2416038-2.536724 1.2416038h-1.186255l-.225837-.0028154c-1.544092-.039416-2.316139-.4926999-2.316139-1.3598518v-19.7160916l.005252-.1210634c.073528-.8277359.919103-1.2416038 2.536724-1.2416038zm19.869777-.2555001c2.118313 0 3.685865.5606808 4.702655 1.6820423 1.016791 1.1213616 1.525186 2.8601818 1.525186 5.2164606v14.435756l-.005252.1210634c-.073528.8277359-.919103 1.2416038-2.536724 1.2416038h-1.186255l-.225837-.0028154c-1.544093-.039416-2.316139-.4926999-2.316139-1.3598518v-13.4989223l-.004902-.2345604c-.032679-.7636849-.228754-1.34554-.588226-1.7455654-.395418-.440028-1.045034-.660042-1.948848-.660042-.762592 0-1.433392.2484029-2.012397.7452087-.579006.4968057-1.037974 1.071681-1.376904 1.7246257v13.6692557l-.005252.1210634c-.073528.8277359-.919103 1.2416038-2.536723 1.2416038h-1.186256l-.225836-.0028154c-1.544093-.039416-2.316139-.4926999-2.316139-1.3598518v-13.4989223l-.000876-.3334523c-.005835-1.0874591-.040849-1.9344338-.10504-2.5409239-.070611-.6671392-.162404-1.4123478-.275381-2.2356259-.084732-.3974447-.127099-.6955281-.127099-.8942504 0-.4542224.571945-.7948892 1.715834-1.0220004 1.143889-.2271113 2.153618-.3406669 3.029188-.3406669.508395 0 .861447.1916251 1.059156.5748753.19771.3832501.345991.8019864.444846 1.2562088.098855.4542225.162404.7665004.190648.9368338.67786-.9084449 1.581674-1.6749452 2.711441-2.299501s2.330144-.9368337 3.601132-.9368337zm-28.55486 9.0276704.145928.0063087c.376589.0336461.652754.2018766.828496.5046915.197709.3406668.296563.880056.296563 1.6181674v.2980834l-.003661.2386771c-.019527.6168452-.117161 1.0766753-.292902 1.3794903-.19771.3406668-.522518.5110002-.974424.5110002h-8.642718l-.145928-.0063087c-.376589-.0336461-.652754-.2018766-.828496-.5046915-.197709-.3406668-.296564-.8800559-.296564-1.6181674v-.2980834l.003662-.2386771c.019526-.6168452.117161-1.0766753.292902-1.3794903.197709-.3406668.522517-.5110002.974424-.5110002zm-64.481451-4.0454183c-2.090069 0-3.361057 1.4336395-3.812964 4.3009184h6.863334c0-1.3058894-.254197-2.3491815-.762592-3.1298763s-1.270988-1.1710421-2.287778-1.1710421zm72.573407-12.8601721c2.090069 0 3.135103.4542224 3.135103 1.3626673v3.3215013l-.005016.1068332c-.080259.8372227-1.123621 1.2558341-3.130087 1.2558341-2.090069 0-3.135104-.4542224-3.135104-1.3626673v-3.3215013l.005016-.1068332c.080259-.8372227 1.123621-1.2558341 3.130088-1.2558341zm-82.467633-26.6427703c1.03457 0 1.984414.1388282 2.849529.4164845.865115.2776562 1.297673.6135308 1.297673 1.0076236 0 .2507863-.124862.5866608-.374586 1.0076236-.249724.4209627-.472692.6314441-.668904.6314441-.017837 0-.13378-.0447833-.34783-.1343498-.410261-.1791331-.824981-.3313962-1.24416-.4567894-.41918-.1253932-.914169-.1880897-1.484966-.1880897-1.195108 0-2.100358.3896144-2.715749 1.1688433-.615391.779229-.923087 2.0018123-.923087 3.6677499 0 1.7555043.289858 3.0318275.869575 3.8289697.579716.7971422 1.547397 1.1957133 2.903041 1.1957133.62431 0 1.163893-.0671749 1.618747-.2015247.454855-.1343498.887412-.3000479 1.297673-.4970943.12843-.0429919.221541-.0730863.279334-.0902831l.068496-.0171967.066395.0074638c.179695.0398074.380532.2388442.602509.5971103.249724.4030495.374586.7210107.374586.9538837 0 .4120061-.468233.7702723-1.404698 1.0747985s-1.913064.4567894-2.929798.4567894c-2.247516 0-3.915315-.5777042-5.003399-1.7331126-1.088083-1.1554084-1.632124-2.9870442-1.632124-5.4949074 0-2.5257765.593094-4.3574122 1.779283-5.4949073s2.760342-1.7062427 4.72246-1.7062427zm12.842949 0c1.87293 0 3.273168.6090525 4.200714 1.8271575.927547 1.218105 1.39132 2.9467392 1.39132 5.1859028 0 .1791331-.129322.4299194-.387964.7523589-.258643.3224396-.468233.4836594-.62877.4836594h-8.000087l.026893.2860417c.13369 1.2148605.490393 2.1092235 1.070109 2.6830891.62431.6180092 1.534019.9270137 2.729127.9270137.677822 0 1.270917-.0806098 1.779283-.2418296.508367-.1612198.945384-.3358745 1.311051-.5239643.365668-.1880897.575258-.2821346.62877-.2821346.196212 0 .423639.2060031.682281.6180091.258643.4120061.387965.7165324.387965.9135788 0 .2866129-.236346.5687475-.709038.8464038s-1.083624.506051-1.832796.685184c-.749172.1791331-1.507263.2686997-2.274272.2686997-4.459358 0-6.689036-2.3735134-6.689036-7.1205401 0-2.4182967.544041-4.2409758 1.632124-5.4680374 1.088084-1.2270616 2.648859-1.8405925 4.682326-1.8405925zm-54.95712-4.7559833c2.729127 0 4.802728.8105772 6.220803 2.4317316 1.418076 1.6211544 2.127114 3.9991461 2.127114 7.1339751 0 3.1348289-.713497 5.5217773-2.140492 7.160845-1.426994 1.6390677-3.496136 2.4586016-6.207425 2.4586016-2.693452 0-4.753675-.8240122-6.180669-2.4720366-1.426995-1.6480244-2.140492-4.0304944-2.140492-7.14741 0-3.134829.713497-5.5128207 2.140492-7.1339751 1.426994-1.6211544 3.487217-2.4317316 6.180669-2.4317316zm24.749433-1.3434982c1.426994 0 2.140492.3134829 2.140492.9404487 0 .1970464-.062431.492616-.187293.8867088s-.276481.5911392-.454855.5911392c-.089187 0-.222968-.0223917-.401342-.0671749-.178374-.0447833-.392423-.0671749-.642147-.0671749-.428099 0-.753632.1164365-.9766.3493095s-.334451.698619-.334451 1.397238v2.2570769h6.983353l.169547.0034273c.70749.0297032 1.061236.2524771 1.061236.6683217v12.7632323l-.00628.0925369c-.054422.3861414-.46259.5792122-1.224503.5792122h-.267561l-.169547-.0034273c-.707491-.0297032-1.061236-.2524771-1.061236-.6683218v-11.1510345h-5.485009v11.1510345l-.00628.0925369c-.054422.3861414-.46259.5792122-1.224503.5792122h-.294318l-.16586-.0034273c-.692111-.0297032-1.038166-.2524771-1.038166-.6683218v-11.1510345h-5.96662v11.1510345l-.00628.0925369c-.054422.3861414-.46259.5792122-1.224503.5792122h-.294317l-.165861-.0034273c-.692111-.0297032-1.038166-.2524771-1.038166-.6683218v-11.1510345h-.909709l-.102193-.0063443c-.162272-.0211476-.284284-.0951644-.366039-.2220504-.098106-.1522631-.147159-.3985711-.147159-.738924v-.3493095l.004088-.1623393c.013625-.2575038.061316-.4496987.143071-.5765846.098106-.1522632.254183-.2283947.468232-.2283947h.909709v-2.3914267l.004578-.2809404c.042731-1.2845832.384575-2.19856 1.025534-2.7419304.686741-.5821825 1.538478-.8732738 2.555211-.8732738 1.426995 0 2.140492.3134829 2.140492.9404487 0 .1970464-.062431.492616-.187293.8867088s-.27648.5911392-.454855.5911392c-.089187 0-.222967-.0223917-.401342-.0671749-.178374-.0447833-.392423-.0671749-.642147-.0671749-.428099 0-.753632.1164365-.976599.3493095-.222968.232873-.334452.698619-.334452 1.397238v2.2570769h5.96662v-2.3914267l.004578-.2809404c.042731-1.2845832.384575-2.19856 1.025533-2.7419304.686741-.5821825 1.538479-.8732738 2.555212-.8732738zm-24.749433 3.8424047c-1.765906 0-3.103713.5956175-4.013422 1.7868525s-1.364563 2.9512176-1.364563 5.2799477c0 2.32873.459314 4.1021476 1.377941 5.3202526.918628 1.2181049 2.251976 1.8271574 4.000044 1.8271574s3.085875-.6090525 4.013422-1.8271574c.927546-1.218105 1.391319-2.9915226 1.391319-5.3202526 0-2.3287301-.459314-4.0887127-1.377941-5.2799477-.918628-1.191235-2.260895-1.7868525-4.0268-1.7868525zm54.903607 4.5410237c-2.015629 0-3.139387 1.2718449-3.371274 3.8155347h6.207426c0-1.2360183-.236346-2.1809453-.709038-2.8347811s-1.18173-.9807536-2.127114-.9807536zm-24.267822-6.9593204c.945384 0 1.418075.2239164 1.418075.6717491v1.7465476l-.006302.086581c-.058824.390112-.529415.585168-1.411773.585168-.945384 0-1.418076-.2239163-1.418076-.671749v-1.7465476l.006303-.086581c.058824-.390112.529415-.5851681 1.411773-.5851681z" fill="currentColor"/></svg>
